<svg width="230" height="348" viewBox="0 0 230 348" fill="none" xmlns="http://www.w3.org/2000/svg">
<g filter="url(#filter0_f_1_12)">
<path d="M62.2808 56.5213C62.2808 36.7809 40.549 -2.69993 4 4.97691V339.467C70.5126 342.026 210.452 348.241 224.282 339.467C238.111 330.694 165.713 259.19 105.744 260.506C45.7759 261.822 36.5978 260.506 31.6587 251.732C26.7196 242.959 25.7318 251.732 31.6587 203.478C37.5856 155.223 62.2808 76.2618 62.2808 56.5213Z" fill="black"/>
<path d="M4.5 338.986V5.38455C22.3649 1.79016 36.6254 9.59735 46.4707 20.7978C56.4062 32.1007 61.7808 46.7924 61.7808 56.5213C61.7808 61.3924 60.2514 69.9747 57.8413 80.918C55.6735 90.761 52.8043 102.468 49.7283 115.018C49.39 116.398 49.0493 117.789 48.7067 119.188C41.794 147.42 34.1302 179.255 31.1624 203.417L30.9044 205.517C29.5583 216.475 28.5916 224.343 27.9667 230.087C27.3033 236.184 27.0214 239.917 27.0841 242.423C27.1475 244.954 27.5632 246.277 28.3121 247.533C28.595 248.008 28.9268 248.474 29.2874 248.982C29.3858 249.12 29.4863 249.261 29.5886 249.407C30.0714 250.093 30.6168 250.901 31.223 251.978C32.4939 254.235 34.0563 256.04 36.6488 257.43C39.2211 258.81 42.7771 259.765 48.0054 260.399C58.4564 261.665 75.7829 261.664 105.755 261.006C135.566 260.351 168.543 277.812 192.378 296.596C204.288 305.981 213.879 315.669 219.624 323.538C222.501 327.479 224.387 330.929 225.137 333.635C225.511 334.987 225.591 336.117 225.399 337.016C225.211 337.898 224.758 338.573 224.014 339.045C223.221 339.549 221.929 340.023 220.142 340.455C218.366 340.885 216.141 341.264 213.512 341.595C208.253 342.257 201.409 342.724 193.363 343.029C177.273 343.64 156.417 343.606 133.906 343.217C95.3041 342.551 51.8615 340.844 19.2929 339.564C14.0594 339.359 9.10672 339.164 4.5 338.986Z" stroke="#3C3C3C"/>
</g>
<defs>
<filter id="filter0_f_1_12" x="0" y="0" width="230" height="348" filterUnits="userSpaceOnUse" color-interpolation-filters="sRGB">
<feFlood flood-opacity="0" result="BackgroundImageFix"/>
<feBlend mode="normal" in="SourceGraphic" in2="BackgroundImageFix" result="shape"/>
</filter>
</defs>
</svg>
